<?xml version="1.0" standalone="no"?>
<!DOCTYPE svg PUBLIC "-//W3C//DTD SVG 20010904//EN"
 "http://www.w3.org/TR/2001/REC-SVG-20010904/DTD/svg10.dtd">
<svg version="1.0" xmlns="http://www.w3.org/2000/svg"
 width="192.000000pt" height="192.000000pt" viewBox="0 0 192.000000 192.000000"
 preserveAspectRatio="xMidYMid meet">
<metadata>
Created by potrace 1.14, written by Peter Selinger 2001-2017
</metadata>
<g transform="translate(0.000000,192.000000) scale(0.100000,-0.100000)"
fill="#000000" stroke="none">
<path d="M888 1735 c-2 -2 -19 -5 -38 -8 -195 -28 -381 -137 -497 -292 -109
-145 -157 -290 -157 -475 -1 -116 12 -178 57 -290 84 -207 255 -365 473 -439
88 -29 109 -33 221 -36 382 -11 712 260 777 637 13 75 14 206 1 268 -10 52
-13 65 -15 65 -1 0 -3 11 -6 25 -6 36 -67 162 -104 215 -66 95 -179 194 -284
247 -67 34 -214 81 -232 74 -7 -3 -15 -2 -19 2 -6 6 -171 12 -177 7z m525
-189 c3 -6 -58 -109 -134 -229 -77 -120 -139 -223 -139 -228 0 -5 -4 -9 -10
-9 -5 0 -10 -4 -10 -9 0 -6 -13 -30 -30 -54 -30 -44 -37 -67 -22 -67 4 0 39 6
78 14 58 11 77 11 102 1 16 -7 32 -17 36 -23 5 -9 -32 -50 -40 -44 -2 2 -22 1
-44 -3 -38 -6 -39 -8 -25 -28 39 -56 -6 -186 -105 -301 -99 -116 -219 -221
-297 -261 -52 -26 -54 -26 -89 -9 l-36 17 5 59 c4 42 19 86 52 156 26 53 51
99 56 100 22 9 6 20 -18 13 -77 -22 -131 28 -121 112 l3 32 -47 -47 c-71 -70
-130 -102 -180 -95 -54 7 -79 34 -85 92 -6 46 22 155 39 155 4 0 8 7 8 15 0 8
31 45 69 83 111 111 221 155 294 117 25 -13 31 -13 52 1 30 20 26 19 52 5 24
-12 26 -38 6 -63 -19 -22 -90 -170 -107 -221 -17 -52 -21 -93 -8 -101 12 -7
67 23 97 54 26 27 26 30 11 45 -9 9 -16 25 -16 35 0 26 62 76 103 84 36 7 42
14 125 151 71 119 262 416 273 427 15 14 65 34 86 34 7 1 14 -4 16 -10z m59
-803 c6 -3 5 -27 -1 -65 -3 -19 -59 -58 -83 -58 -56 0 -57 71 0 117 24 20 55
23 84 6z"/>
<path d="M670 1042 c-62 -8 -202 -138 -245 -229 -46 -95 -15 -97 92 -4 44 38
104 102 134 143 30 40 57 75 61 76 5 2 8 7 8 11 0 8 -8 8 -50 3z"/>
<path d="M999 846 c-11 -6 -57 -74 -101 -151 -128 -221 -166 -305 -140 -305
29 0 194 156 257 245 24 33 51 84 61 114 16 49 16 56 2 79 -17 28 -47 35 -79
18z"/>
</g>
</svg>
